PathFileType	4	(X/Y/Z)	6_coords_data.trc
DataRate	CameraRate	NumFrames	NumMarkers	Units	OrigDataRate	OrigDataStartFrame	OrigNumFrames
30.0	30.0	8	21	m	30.0	29	75
Frame#	Time	THUMB_TIP	THUMB_IP	THUMB_MCP	THUMB_CMC	INDEX_TIP	INDEX_DIP	INDEX_PIP	INDEX_MCP	MIDDLE_TIP	MIDDLE_DIP	MIDDLE_PIP	MIDDLE_MCP	RING_TIP	RING_DIP	RING_PIP	RING_MCP	PINKY_TIP	PINKY_DIP	PINKY_PIP	PINKY_MCP	WRIST
X1	Y1	Z1	X2	Y2	Z2	X3	Y3	Z3	X4	Y4	Z4	X5	Y5	Z5	X6	Y6	Z6	X7	Y7	Z7	X8	Y8	Z8	X9	Y9	Z9	X10	Y10	Z10	X11	Y11	Z11	X12	Y12	Z12	X13	Y13	Z13	X14	Y14	Z14	X15	Y15	Z15	X16	Y16	Z16	X17	Y17	Z17	X18	Y18	Z18	X19	Y19	Z19	X20	Y20	Z20	X21	Y21	Z21
28	0.9333333333333333	-0.014255000114440917	-0.13261799621582032	1.01427001953125	-0.003566420078277588	-0.10688200378417968	1.022	-0.005354100227355957	-0.08060379791259766	1.039300048828125	-0.005753940105438233	-0.04214030075073242	1.0514100341796875	0.004552879810333252	-0.04865000152587891	1.0215599975585938	0.02210740089416504	-0.047152698516845705	1.0137000122070312	0.029285600662231445	-0.05101110076904297	0.9897249755859375	-0.011805899620056152	-0.0560359001159668	0.9906630249023437	0.010760899543762206	-0.0331781005859375	1.024969970703125	0.020421199798583985	-0.029922599792480468	1.0175399780273438	0.028761600494384764	-0.029463600158691407	0.9892509765625	-0.015798999786376954	-0.031743900299072265	0.9836530151367188	0.005496709823608398	-0.016171600341796873	1.0275	0.017841999053955077	-0.01262150001525879	1.0193099975585938	0.027898899078369142	-0.009127809524536132	0.9938900146484375	-0.014280099868774414	-0.007002500057220459	0.9873569946289062	0.002901880025863647	0.001202319979667663	1.0256400146484375	0.017770099639892577	0.0032910799980163568	1.0185399780273436	0.021929100036621095	0.008679559707641601	0.9994879760742188	-0.009751859664916993	0.013472200393676758	0.99660400390625	-0.024971399307250976	-0.012551300048828125	1.0683399658203125
29	0.9666666666666667	-0.014364399909973145	-0.13264300537109375	1.0142100219726562	-0.0036631100177764893	-0.10693299865722657	1.0219299926757812	-0.005488259792327881	-0.08072969818115235	1.039239990234375	-0.005801849842071534	-0.04224710083007813	1.0513900146484374	0.004446100234985352	-0.048724998474121095	1.0215999755859375	0.022113199234008788	-0.04723109817504883	1.013530029296875	0.029030899047851562	-0.05115169906616211	0.9894660034179688	-0.011921799659729004	-0.056125701904296874	0.9905700073242187	0.010632599830627441	-0.03333280181884766	1.025260009765625	0.02038610076904297	-0.03000979995727539	1.017530029296875	0.028674900054931642	-0.029559099197387695	0.9891740112304688	-0.01586639976501465	-0.0318390998840332	0.9835670166015625	0.005578110218048096	-0.01618199920654297	1.027510009765625	0.017447399139404296	-0.012707300186157226	1.0190999755859376	0.027842599868774413	-0.009239270210266113	0.993885009765625	-0.014394399642944335	-0.007082650184631348	0.9873400268554687	0.002769570112228393	0.0011339700222015381	1.0261800537109376	0.017729400634765625	0.0032341699600219724	1.0182999877929688	0.02182469940185547	0.008605449676513673	0.999552001953125	-0.009779939651489258	0.013425399780273437	0.9967130126953125	-0.025020299911499025	-0.012549500465393066	1.0681800537109376
30	1.0	-0.014355299949645996	-0.13275700378417968	1.014219970703125	-0.003701339960098266	-0.10702100372314453	1.0219299926757812	-0.00548714017868042	-0.08077300262451172	1.0393199462890625	-0.005849890232086182	-0.04232780075073242	1.05143994140625	0.004330530166625977	-0.04885490036010742	1.0215900268554687	0.021899799346923828	-0.0474541015625	1.01347998046875	0.029198999404907226	-0.05111520004272461	0.9896209716796875	-0.011907400131225586	-0.05621099853515625	0.990447021484375	0.010734999656677246	-0.03341600036621094	1.025199951171875	0.020220500946044922	-0.030123899459838867	1.017530029296875	0.028629199981689453	-0.029673599243164064	0.9891240234375	-0.01581079959869385	-0.03193339920043945	0.9834420166015625	0.005300340175628662	-0.016370500564575195	1.0274000244140624	0.01728310012817383	-0.012821700096130371	1.0191599731445313	0.027804100036621093	-0.009293060302734375	0.9940759887695313	-0.014400199890136718	-0.007228089809417725	0.9872789916992187	0.002793829917907715	0.001065310001373291	1.0256099853515626	0.01771590042114258	0.003105040073394775	1.0183900146484375	0.021768199920654298	0.008428799629211425	0.9992830200195313	-0.00978966999053955	0.013277999877929688	0.9965789794921875	-0.02507589912414551	-0.012583700180053711	1.0681300048828124
31	1.0333333333333334	-0.014485199928283692	-0.13286000061035155	1.0142000122070312	-0.003827270030975342	-0.10715699768066406	1.0219600219726563	-0.0055847101211547855	-0.08088929748535156	1.03925	-0.005982180118560791	-0.042268199920654295	1.0513299560546876	0.004136219978332518	-0.04894340133666992	1.0214099731445312	0.02203700065612793	-0.04753960037231445	1.0134600219726562	0.029083999633789062	-0.05137139892578125	0.9896430053710937	-0.011901800155639648	-0.05636100006103516	0.990406005859375	0.010906999588012695	-0.03343019866943359	1.0248299560546874	0.020127199172973634	-0.0303533992767334	1.0173900146484376	0.028507699966430666	-0.029854400634765625	0.9891389770507812	-0.016106399536132812	-0.032070301055908204	0.9835969848632813	0.005165699958801269	-0.016334999084472657	1.0273499755859374	0.017200300216674805	-0.012982999801635742	1.019219970703125	0.02769799995422363	-0.009498120307922363	0.99389599609375	-0.01455459976196289	-0.0073601298332214345	0.9872979736328125	0.002647819995880127	0.000903099000453949	1.0256800537109374	0.01748550033569336	0.002927229881286621	1.0181900024414063	0.021552000045776367	0.008283780097961426	0.999447998046875	-0.009895689964294433	0.01314109992980957	0.9965449829101563	-0.025124900817871092	-0.012691399574279786	1.06806005859375
32	1.0666666666666667	-0.01468000030517578	-0.13299000549316406	1.0141099853515625	-0.003970380067825317	-0.1072770004272461	1.0218800048828125	-0.005803030014038086	-0.08101779937744141	1.03922998046875	-0.00604748010635376	-0.04250479888916016	1.0513199462890626	0.004298540115356445	-0.04913219833374023	1.0214600219726562	0.021696500778198242	-0.047663398742675785	1.0133599853515625	0.028759899139404296	-0.05152920150756836	0.9892930297851562	-0.012089500427246094	-0.05656259918212891	0.990280029296875	0.010400600433349609	-0.03367779922485352	1.024800048828125	0.019950799942016602	-0.030474000930786133	1.017239990234375	0.02831909942626953	-0.030015499114990234	0.988864013671875	-0.016170900344848634	-0.03223600006103516	0.9833410034179687	0.004631199836730957	-0.016531499862670898	1.02725	0.01716830062866211	-0.013099300384521484	1.0189299926757813	0.027529399871826173	-0.009636420249938965	0.9938759765625	-0.014657699584960937	-0.007490640163421631	0.9871069946289063	0.0024138400554656984	0.0008680049777030941	1.0257099609375	0.017328699111938475	0.002757270097732544	1.0178800048828125	0.021455400466918944	0.008123200416564941	0.9993619995117188	-0.01004640007019043	0.012961600303649902	0.99631298828125	-0.025275400161743164	-0.012851900100708007	1.06797998046875
33	1.1	-0.014811400413513184	-0.13308700561523437	1.0140700073242188	-0.004099100112915039	-0.1073730010986328	1.021760009765625	-0.005900100231170654	-0.08103160095214844	1.0391099853515624	-0.006211689949035644	-0.0425885009765625	1.05125	0.003975239992141723	-0.04916630172729492	1.0214299926757813	0.021626399993896483	-0.047745601654052734	1.0132999877929687	0.028587099075317382	-0.051686199188232425	0.9892839965820313	-0.012475899696350098	-0.056658798217773435	0.9903300170898437	0.010580300331115722	-0.033643798828125	1.0248199462890626	0.019627099990844728	-0.030580099105834962	1.0171799926757812	0.028112600326538086	-0.030161800384521483	0.9886439819335937	-0.016428199768066407	-0.032291599273681644	0.9833779907226563	0.005070640087127685	-0.016713499069213867	1.02725	0.017008899688720703	-0.013210599899291992	1.01897998046875	0.027387399673461914	-0.009787790298461914	0.99372802734375	-0.014865500450134277	-0.007604549884796143	0.98710302734375	0.002322609901428222	0.000687681972980499	1.0256700439453126	0.017218399047851562	0.002666850090026855	1.0178699951171875	0.021371700286865233	0.008003029823303223	0.99922802734375	-0.010234600067138671	0.012920000076293946	0.9964099731445313	-0.025340700149536134	-0.012896900177001952	1.0681099853515625
34	1.1333333333333333	-0.014889699935913086	-0.13320399475097655	1.0140399780273437	-0.0041993498802185055	-0.10746600341796875	1.021780029296875	-0.0060748600959777835	-0.08118080139160157	1.0392099609375	-0.006339369773864746	-0.04275360107421875	1.0511600341796874	0.003865279912948608	-0.04931259918212891	1.0211699829101561	0.021409900665283203	-0.047902698516845706	1.0130999755859376	0.028555400848388673	-0.05170539855957031	0.989156982421875	-0.012664999961853027	-0.056767398834228516	0.990323974609375	0.010070199966430665	-0.033877201080322265	1.0248599853515625	0.019637399673461915	-0.030708099365234377	1.017	0.027933700561523438	-0.03034670066833496	0.988655029296875	-0.016609199523925783	-0.03247269821166992	0.98331201171875	0.004528299808502197	-0.016859699249267578	1.0271700439453124	0.016873300552368162	-0.01336110019683838	1.01897998046875	0.027222299575805665	-0.009941450119018555	0.9934310302734375	-0.015033599853515624	-0.007719689846038818	0.9870560302734375	0.002169450044631958	0.0005935149788856501	1.0254200439453125	0.017016399383544923	0.002533639907836914	1.0179400024414063	0.021227399826049806	0.00785108995437622	0.9991729736328125	-0.010416000366210938	0.012784500122070313	0.9962630004882812	-0.025467199325561525	-0.01305840015411377	1.067760009765625
35	1.1666666666666667	-0.015067700386047364	-0.1333070068359375	1.01397998046875	-0.004344399929046631	-0.10756099700927735	1.021739990234375	-0.006165460109710693	-0.08129340362548829	1.039030029296875	-0.006524340152740478	-0.042718299865722655	1.051010009765625	0.0038125500679016115	-0.04930179977416992	1.02125	0.021009099960327147	-0.04806100082397461	1.0131199951171874	0.028249900817871095	-0.05197370147705078	0.9890989990234375	-0.012879500389099121	-0.05690520095825195	0.9902769775390625	0.010232799530029297	-0.03390470123291016	1.0247099609375	0.01948110008239746	-0.03085169982910156	1.0168699951171876	0.027885000228881837	-0.03037969970703125	0.9886849975585937	-0.016856700897216796	-0.032559200286865236	0.9833480224609376	0.0049432401657104495	-0.01688159942626953	1.0272099609375	0.016720500946044922	-0.013463000297546386	1.0186300048828125	0.027078500747680666	-0.010037799835205079	0.9933499755859375	-0.015164899826049804	-0.00783296012878418	0.9869869995117188	0.001919149994850158	0.000474570989608764	1.02577001953125	0.016933900833129883	0.0024632399082183836	1.017780029296875	0.02100709915161133	0.007741690158843994	0.9989019775390625	-0.010511799812316895	0.012659600257873535	0.9960889892578125	-0.025555500030517576	-0.013078100204467773	1.067800048828125
